G04 #@! TF.GenerationSoftware,KiCad,Pcbnew,(5.0.0)*
G04 #@! TF.CreationDate,2018-09-20T09:30:45-05:00*
G04 #@! TF.ProjectId,El_Santo,456C5F53616E746F2E6B696361645F70,V1.0*
G04 #@! TF.SameCoordinates,Original*
G04 #@! TF.FileFunction,Copper,L2,Bot,Signal*
G04 #@! TF.FilePolarity,Positive*
%FSLAX46Y46*%
G04 Gerber Fmt 4.6, Leading zero omitted, Abs format (unit mm)*
G04 Created by KiCad (PCBNEW (5.0.0)) date 09/20/18 09:30:45*
%MOMM*%
%LPD*%
G01*
G04 APERTURE LIST*
G04 #@! TA.AperFunction,ComponentPad*
%ADD10R,2.170000X2.170000*%
G04 #@! TD*
G04 #@! TA.AperFunction,ComponentPad*
%ADD11C,2.500000*%
G04 #@! TD*
G04 #@! TA.AperFunction,ComponentPad*
%ADD12R,1.600000X1.600000*%
G04 #@! TD*
G04 #@! TA.AperFunction,ComponentPad*
%ADD13C,1.600000*%
G04 #@! TD*
G04 #@! TA.AperFunction,ComponentPad*
%ADD14R,1.800000X1.800000*%
G04 #@! TD*
G04 #@! TA.AperFunction,ComponentPad*
%ADD15C,1.800000*%
G04 #@! TD*
G04 #@! TA.AperFunction,ComponentPad*
%ADD16O,1.000000X1.500000*%
G04 #@! TD*
G04 #@! TA.AperFunction,ComponentPad*
%ADD17R,1.000000X1.500000*%
G04 #@! TD*
G04 #@! TA.AperFunction,ComponentPad*
%ADD18O,1.600000X1.600000*%
G04 #@! TD*
G04 #@! TA.AperFunction,ComponentPad*
%ADD19R,1.900000X1.900000*%
G04 #@! TD*
G04 #@! TA.AperFunction,ComponentPad*
%ADD20C,1.900000*%
G04 #@! TD*
G04 #@! TA.AperFunction,Conductor*
%ADD21C,0.254000*%
G04 #@! TD*
G04 APERTURE END LIST*
D10*
G04 #@! TO.P,BAT1,Neg*
G04 #@! TO.N,GND*
X149225000Y-114935000D03*
D11*
G04 #@! TO.P,BAT1,Pos*
G04 #@! TO.N,Net-(BAT1-PadPos)*
X129225000Y-114935000D03*
G04 #@! TD*
D12*
G04 #@! TO.P,C1,1*
G04 #@! TO.N,Net-(C1-Pad1)*
X165100000Y-113665000D03*
D13*
G04 #@! TO.P,C1,2*
G04 #@! TO.N,GND*
X165100000Y-115665000D03*
G04 #@! TD*
D12*
G04 #@! TO.P,C2,1*
G04 #@! TO.N,Net-(C2-Pad1)*
X175260000Y-119380000D03*
D13*
G04 #@! TO.P,C2,2*
G04 #@! TO.N,GND*
X175260000Y-121880000D03*
G04 #@! TD*
D14*
G04 #@! TO.P,D1,1*
G04 #@! TO.N,Net-(D1-Pad1)*
X165481000Y-65151000D03*
D15*
G04 #@! TO.P,D1,2*
G04 #@! TO.N,Net-(D1-Pad2)*
X168021000Y-65151000D03*
G04 #@! TD*
G04 #@! TO.P,D2,2*
G04 #@! TO.N,Net-(D2-Pad2)*
X143510000Y-65151000D03*
D14*
G04 #@! TO.P,D2,1*
G04 #@! TO.N,Net-(D1-Pad1)*
X146050000Y-65151000D03*
G04 #@! TD*
D16*
G04 #@! TO.P,Q1,2*
G04 #@! TO.N,Net-(Q1-Pad2)*
X158115000Y-112395000D03*
G04 #@! TO.P,Q1,3*
G04 #@! TO.N,Net-(D1-Pad1)*
X156845000Y-112395000D03*
D17*
G04 #@! TO.P,Q1,1*
G04 #@! TO.N,GND*
X159385000Y-112395000D03*
G04 #@! TD*
D18*
G04 #@! TO.P,R1,2*
G04 #@! TO.N,Net-(R1-Pad2)*
X167640000Y-105410000D03*
D13*
G04 #@! TO.P,R1,1*
G04 #@! TO.N,VCC*
X160020000Y-105410000D03*
G04 #@! TD*
G04 #@! TO.P,R2,1*
G04 #@! TO.N,Net-(R1-Pad2)*
X167640000Y-108585000D03*
D18*
G04 #@! TO.P,R2,2*
G04 #@! TO.N,Net-(C1-Pad1)*
X160020000Y-108585000D03*
G04 #@! TD*
D13*
G04 #@! TO.P,R3,1*
G04 #@! TO.N,Net-(C2-Pad1)*
X160020000Y-120015000D03*
D18*
G04 #@! TO.P,R3,2*
G04 #@! TO.N,Net-(R3-Pad2)*
X167640000Y-120015000D03*
G04 #@! TD*
G04 #@! TO.P,R4,2*
G04 #@! TO.N,GND*
X167640000Y-123190000D03*
D13*
G04 #@! TO.P,R4,1*
G04 #@! TO.N,Net-(C2-Pad1)*
X160020000Y-123190000D03*
G04 #@! TD*
G04 #@! TO.P,R5,1*
G04 #@! TO.N,Net-(Q1-Pad2)*
X156845000Y-116205000D03*
D18*
G04 #@! TO.P,R5,2*
G04 #@! TO.N,Net-(C2-Pad1)*
X156845000Y-123825000D03*
G04 #@! TD*
G04 #@! TO.P,R6,2*
G04 #@! TO.N,Net-(D1-Pad2)*
X170815000Y-45720000D03*
D13*
G04 #@! TO.P,R6,1*
G04 #@! TO.N,VCC*
X178435000Y-45720000D03*
G04 #@! TD*
G04 #@! TO.P,R7,1*
G04 #@! TO.N,VCC*
X130810000Y-45085000D03*
D18*
G04 #@! TO.P,R7,2*
G04 #@! TO.N,Net-(D2-Pad2)*
X138430000Y-45085000D03*
G04 #@! TD*
D19*
G04 #@! TO.P,S1,1*
G04 #@! TO.N,Net-(S1-Pad1)*
X129540000Y-94020000D03*
D20*
G04 #@! TO.P,S1,2*
G04 #@! TO.N,VCC*
X129540000Y-96520000D03*
G04 #@! TO.P,S1,3*
G04 #@! TO.N,Net-(BAT1-PadPos)*
X129540000Y-99020000D03*
G04 #@! TD*
D12*
G04 #@! TO.P,U1,1*
G04 #@! TO.N,GND*
X171450000Y-106045000D03*
D18*
G04 #@! TO.P,U1,5*
G04 #@! TO.N,Net-(U1-Pad5)*
X179070000Y-113665000D03*
G04 #@! TO.P,U1,2*
G04 #@! TO.N,Net-(C1-Pad1)*
X171450000Y-108585000D03*
G04 #@! TO.P,U1,6*
X179070000Y-111125000D03*
G04 #@! TO.P,U1,3*
G04 #@! TO.N,Net-(R3-Pad2)*
X171450000Y-111125000D03*
G04 #@! TO.P,U1,7*
G04 #@! TO.N,Net-(R1-Pad2)*
X179070000Y-108585000D03*
G04 #@! TO.P,U1,4*
G04 #@! TO.N,VCC*
X171450000Y-113665000D03*
G04 #@! TO.P,U1,8*
X179070000Y-106045000D03*
G04 #@! TD*
D21*
G04 #@! TO.N,Net-(BAT1-PadPos)*
X129225000Y-99335000D02*
X129540000Y-99020000D01*
X129225000Y-114935000D02*
X129225000Y-99335000D01*
G04 #@! TO.N,Net-(C1-Pad1)*
X165100000Y-113665000D02*
X160020000Y-108585000D01*
X179869999Y-110325001D02*
X179070000Y-111125000D01*
X171450000Y-108559600D02*
X175145601Y-104863999D01*
X171450000Y-108585000D02*
X171450000Y-108559600D01*
X175145601Y-104863999D02*
X179793999Y-104863999D01*
X179793999Y-104863999D02*
X180467000Y-105537000D01*
X180467000Y-105537000D02*
X180467000Y-109728000D01*
X180467000Y-109728000D02*
X179869999Y-110325001D01*
X165100000Y-111480600D02*
X165100000Y-113665000D01*
X160578800Y-106959400D02*
X165100000Y-111480600D01*
X159334200Y-106959400D02*
X160578800Y-106959400D01*
X158521400Y-106146600D02*
X159334200Y-106959400D01*
X158521400Y-104622600D02*
X158521400Y-106146600D01*
X159308800Y-103835200D02*
X158521400Y-104622600D01*
X160782000Y-103835200D02*
X159308800Y-103835200D01*
X171424600Y-108585000D02*
X169926000Y-110083600D01*
X171450000Y-108585000D02*
X171424600Y-108585000D01*
X169926000Y-110083600D02*
X165412034Y-110083600D01*
X165412034Y-110083600D02*
X161417000Y-106088566D01*
X161417000Y-106088566D02*
X161417000Y-104470200D01*
X161417000Y-104470200D02*
X160782000Y-103835200D01*
G04 #@! TO.N,Net-(C2-Pad1)*
X157480000Y-123190000D02*
X156845000Y-123825000D01*
X160020000Y-123190000D02*
X157480000Y-123190000D01*
X160020000Y-120015000D02*
X160020000Y-123190000D01*
X160819999Y-120814999D02*
X160020000Y-120015000D01*
X161671000Y-121666000D02*
X160819999Y-120814999D01*
X168884600Y-121666000D02*
X161671000Y-121666000D01*
X175260000Y-119380000D02*
X171170600Y-119380000D01*
X171170600Y-119380000D02*
X168884600Y-121666000D01*
G04 #@! TO.N,Net-(D1-Pad1)*
X164327000Y-65151000D02*
X165481000Y-65151000D01*
X156845000Y-72633000D02*
X164327000Y-65151000D01*
X155727400Y-73750600D02*
X156845000Y-72633000D01*
X156845000Y-112395000D02*
X155727400Y-111277400D01*
X155727400Y-111277400D02*
X155727400Y-73750600D01*
X147204000Y-65151000D02*
X155765500Y-73712500D01*
X146050000Y-65151000D02*
X147204000Y-65151000D01*
X155765500Y-73712500D02*
X156845000Y-72633000D01*
G04 #@! TO.N,Net-(D1-Pad2)*
X169011600Y-45720000D02*
X170815000Y-45720000D01*
X168021000Y-65151000D02*
X168021000Y-46710600D01*
X168021000Y-46710600D02*
X169011600Y-45720000D01*
G04 #@! TO.N,Net-(D2-Pad2)*
X142367000Y-45085000D02*
X138430000Y-45085000D01*
X143510000Y-65151000D02*
X143510000Y-46228000D01*
X143510000Y-46228000D02*
X142367000Y-45085000D01*
G04 #@! TO.N,Net-(Q1-Pad2)*
X157644999Y-115405001D02*
X156845000Y-116205000D01*
X157726010Y-115323990D02*
X157644999Y-115405001D01*
X157726010Y-112783990D02*
X157726010Y-115323990D01*
X158115000Y-112395000D02*
X157726010Y-112783990D01*
G04 #@! TO.N,Net-(R1-Pad2)*
X167640000Y-105410000D02*
X167640000Y-108585000D01*
X178270001Y-109384999D02*
X179070000Y-108585000D01*
X177520600Y-110134400D02*
X178270001Y-109384999D01*
X177520600Y-111937800D02*
X177520600Y-110134400D01*
X177977800Y-112395000D02*
X177520600Y-111937800D01*
X180238400Y-112395000D02*
X177977800Y-112395000D01*
X167640000Y-107453630D02*
X170737640Y-104355990D01*
X167640000Y-108585000D02*
X167640000Y-107453630D01*
X170737640Y-104355990D02*
X180004426Y-104355990D01*
X180004426Y-104355990D02*
X180975011Y-105326575D01*
X180975011Y-105326575D02*
X180975011Y-111658389D01*
X180975011Y-111658389D02*
X180238400Y-112395000D01*
G04 #@! TO.N,VCC*
X179070000Y-106045000D02*
X171450000Y-113665000D01*
X168275000Y-113665000D02*
X171450000Y-113665000D01*
X160020000Y-105410000D02*
X168275000Y-113665000D01*
X177635001Y-44920001D02*
X178435000Y-45720000D01*
X174972627Y-42257627D02*
X177635001Y-44920001D01*
X133637373Y-42257627D02*
X174972627Y-42257627D01*
X130810000Y-45085000D02*
X133637373Y-42257627D01*
X130073400Y-96520000D02*
X129540000Y-96520000D01*
X131622800Y-94970600D02*
X130073400Y-96520000D01*
X130810000Y-45085000D02*
X131622800Y-45897800D01*
X131622800Y-45897800D02*
X131622800Y-94970600D01*
G04 #@! TD*
G04 #@! TO.N,GND*
G36*
X154965400Y-111202357D02*
X154950473Y-111277400D01*
X154965400Y-111352443D01*
X154965400Y-111352447D01*
X155009612Y-111574716D01*
X155178029Y-111826771D01*
X155241653Y-111869283D01*
X155710000Y-112337630D01*
X155710000Y-112756783D01*
X155775854Y-113087855D01*
X156026712Y-113463289D01*
X156402146Y-113714146D01*
X156845000Y-113802235D01*
X156964010Y-113778562D01*
X156964011Y-114770000D01*
X156559561Y-114770000D01*
X156032138Y-114988466D01*
X155628466Y-115392138D01*
X155410000Y-115919561D01*
X155410000Y-116490439D01*
X155628466Y-117017862D01*
X156032138Y-117421534D01*
X156559561Y-117640000D01*
X157130439Y-117640000D01*
X157657862Y-117421534D01*
X158061534Y-117017862D01*
X158204486Y-116672745D01*
X164271861Y-116672745D01*
X164345995Y-116918864D01*
X164883223Y-117111965D01*
X165453454Y-117084778D01*
X165854005Y-116918864D01*
X165928139Y-116672745D01*
X165100000Y-115844605D01*
X164271861Y-116672745D01*
X158204486Y-116672745D01*
X158280000Y-116490439D01*
X158280000Y-115919561D01*
X158264010Y-115880959D01*
X158275381Y-115873361D01*
X158443798Y-115621307D01*
X158488010Y-115399038D01*
X158488010Y-115399037D01*
X158502938Y-115323990D01*
X158488010Y-115248943D01*
X158488010Y-113728039D01*
X158557855Y-113714146D01*
X158573871Y-113703445D01*
X158758691Y-113780000D01*
X159099250Y-113780000D01*
X159258000Y-113621250D01*
X159258000Y-112522000D01*
X159512000Y-112522000D01*
X159512000Y-113621250D01*
X159670750Y-113780000D01*
X160011309Y-113780000D01*
X160244698Y-113683327D01*
X160423327Y-113504699D01*
X160520000Y-113271310D01*
X160520000Y-112680750D01*
X160361250Y-112522000D01*
X159512000Y-112522000D01*
X159258000Y-112522000D01*
X159250000Y-112522000D01*
X159250000Y-112268000D01*
X159258000Y-112268000D01*
X159258000Y-111168750D01*
X159512000Y-111168750D01*
X159512000Y-112268000D01*
X160361250Y-112268000D01*
X160520000Y-112109250D01*
X160520000Y-111518690D01*
X160423327Y-111285301D01*
X160244698Y-111106673D01*
X160011309Y-111010000D01*
X159670750Y-111010000D01*
X159512000Y-111168750D01*
X159258000Y-111168750D01*
X159099250Y-111010000D01*
X158758691Y-111010000D01*
X158573870Y-111086555D01*
X158557854Y-111075854D01*
X158115000Y-110987765D01*
X157672145Y-111075854D01*
X157480000Y-111204241D01*
X157287854Y-111075854D01*
X156845000Y-110987765D01*
X156570080Y-111042450D01*
X156489400Y-110961770D01*
X156489400Y-102997000D01*
X181216300Y-102997000D01*
X181216300Y-104490234D01*
X180596310Y-103870244D01*
X180553797Y-103806619D01*
X180301743Y-103638202D01*
X180079474Y-103593990D01*
X180079469Y-103593990D01*
X180004426Y-103579063D01*
X179929383Y-103593990D01*
X170812682Y-103593990D01*
X170737639Y-103579063D01*
X170662596Y-103593990D01*
X170662592Y-103593990D01*
X170440323Y-103638202D01*
X170440322Y-103638203D01*
X170440321Y-103638203D01*
X170386281Y-103674312D01*
X170188269Y-103806619D01*
X170145756Y-103870244D01*
X169020637Y-104995363D01*
X168991740Y-104850091D01*
X168674577Y-104375423D01*
X168199909Y-104058260D01*
X167781333Y-103975000D01*
X167498667Y-103975000D01*
X167080091Y-104058260D01*
X166605423Y-104375423D01*
X166288260Y-104850091D01*
X166176887Y-105410000D01*
X166288260Y-105969909D01*
X166605423Y-106444577D01*
X166878000Y-106626707D01*
X166878001Y-107347398D01*
X166827138Y-107368466D01*
X166423466Y-107772138D01*
X166205000Y-108299561D01*
X166205000Y-108870439D01*
X166391877Y-109321600D01*
X165727665Y-109321600D01*
X162179000Y-105772936D01*
X162179000Y-104545247D01*
X162193928Y-104470200D01*
X162176895Y-104384571D01*
X162134788Y-104172883D01*
X161966371Y-103920829D01*
X161902749Y-103878318D01*
X161373883Y-103349453D01*
X161331371Y-103285829D01*
X161079317Y-103117412D01*
X160857048Y-103073200D01*
X160857043Y-103073200D01*
X160782000Y-103058273D01*
X160706957Y-103073200D01*
X159383847Y-103073200D01*
X159308800Y-103058272D01*
X159233753Y-103073200D01*
X159233752Y-103073200D01*
X159011483Y-103117412D01*
X158759429Y-103285829D01*
X158716918Y-103349451D01*
X158035653Y-104030717D01*
X157972029Y-104073229D01*
X157803612Y-104325284D01*
X157759400Y-104547553D01*
X157759400Y-104547557D01*
X157744473Y-104622600D01*
X157759400Y-104697644D01*
X157759401Y-106071552D01*
X157744473Y-106146600D01*
X157803613Y-106443917D01*
X157925634Y-106626534D01*
X157972030Y-106695971D01*
X158035651Y-106738481D01*
X158742317Y-107445148D01*
X158784829Y-107508771D01*
X158942749Y-107614290D01*
X158668260Y-108025091D01*
X158556887Y-108585000D01*
X158668260Y-109144909D01*
X158985423Y-109619577D01*
X159460091Y-109936740D01*
X159878667Y-110020000D01*
X160161333Y-110020000D01*
X160341527Y-109984157D01*
X163652560Y-113295191D01*
X163652560Y-114465000D01*
X163701843Y-114712765D01*
X163841995Y-114922516D01*
X163653035Y-115448223D01*
X163680222Y-116018454D01*
X163846136Y-116419005D01*
X164092255Y-116493139D01*
X164920395Y-115665000D01*
X164906252Y-115650858D01*
X165085858Y-115471253D01*
X165100000Y-115485395D01*
X165114143Y-115471253D01*
X165293748Y-115650858D01*
X165279605Y-115665000D01*
X166107745Y-116493139D01*
X166353864Y-116419005D01*
X166546965Y-115881777D01*
X166519778Y-115311546D01*
X166358395Y-114921933D01*
X166498157Y-114712765D01*
X166547440Y-114465000D01*
X166547440Y-113015071D01*
X167683118Y-114150749D01*
X167725629Y-114214371D01*
X167977683Y-114382788D01*
X168199952Y-114427000D01*
X168199957Y-114427000D01*
X168275000Y-114441927D01*
X168350043Y-114427000D01*
X170233293Y-114427000D01*
X170415423Y-114699577D01*
X170890091Y-115016740D01*
X171308667Y-115100000D01*
X171591333Y-115100000D01*
X172009909Y-115016740D01*
X172484577Y-114699577D01*
X172801740Y-114224909D01*
X172913113Y-113665000D01*
X172849157Y-113343473D01*
X177607010Y-108585620D01*
X177670843Y-108906526D01*
X177034851Y-109542519D01*
X176971230Y-109585029D01*
X176928719Y-109648651D01*
X176928718Y-109648652D01*
X176802813Y-109837083D01*
X176743673Y-110134400D01*
X176758601Y-110209448D01*
X176758600Y-111862756D01*
X176743673Y-111937800D01*
X176758600Y-112012843D01*
X176758600Y-112012847D01*
X176802812Y-112235116D01*
X176971229Y-112487171D01*
X177034854Y-112529684D01*
X177385916Y-112880746D01*
X177428429Y-112944371D01*
X177586514Y-113050000D01*
X177680481Y-113112787D01*
X177680482Y-113112787D01*
X177680483Y-113112788D01*
X177715349Y-113119723D01*
X177606887Y-113665000D01*
X177718260Y-114224909D01*
X178035423Y-114699577D01*
X178510091Y-115016740D01*
X178928667Y-115100000D01*
X179211333Y-115100000D01*
X179629909Y-115016740D01*
X180104577Y-114699577D01*
X180421740Y-114224909D01*
X180533113Y-113665000D01*
X180427551Y-113134304D01*
X180535717Y-113112788D01*
X180787771Y-112944371D01*
X180830283Y-112880747D01*
X181216300Y-112494730D01*
X181216300Y-126352300D01*
X127647700Y-126352300D01*
X127647700Y-123825000D01*
X155381887Y-123825000D01*
X155493260Y-124384909D01*
X155810423Y-124859577D01*
X156285091Y-125176740D01*
X156703667Y-125260000D01*
X156986333Y-125260000D01*
X157404909Y-125176740D01*
X157879577Y-124859577D01*
X158196740Y-124384909D01*
X158282851Y-123952000D01*
X158782398Y-123952000D01*
X158803466Y-124002862D01*
X159207138Y-124406534D01*
X159734561Y-124625000D01*
X160305439Y-124625000D01*
X160832862Y-124406534D01*
X161236534Y-124002862D01*
X161428655Y-123539039D01*
X166248096Y-123539039D01*
X166408959Y-123927423D01*
X166784866Y-124342389D01*
X167290959Y-124581914D01*
X167513000Y-124460629D01*
X167513000Y-123317000D01*
X167767000Y-123317000D01*
X167767000Y-124460629D01*
X167989041Y-124581914D01*
X168495134Y-124342389D01*
X168871041Y-123927423D01*
X169031904Y-123539039D01*
X168909915Y-123317000D01*
X167767000Y-123317000D01*
X167513000Y-123317000D01*
X166370085Y-123317000D01*
X166248096Y-123539039D01*
X161428655Y-123539039D01*
X161455000Y-123475439D01*
X161455000Y-122904561D01*
X161236534Y-122377138D01*
X160832862Y-121973466D01*
X160782000Y-121952398D01*
X160782000Y-121854631D01*
X161079118Y-122151749D01*
X161121629Y-122215371D01*
X161185251Y-122257882D01*
X161373681Y-122383787D01*
X161373682Y-122383787D01*
X161373683Y-122383788D01*
X161595952Y-122428000D01*
X161595956Y-122428000D01*
X161670999Y-122442927D01*
X161746042Y-122428000D01*
X166431223Y-122428000D01*
X166408959Y-122452577D01*
X166248096Y-122840961D01*
X166370085Y-123063000D01*
X167513000Y-123063000D01*
X167513000Y-123043000D01*
X167767000Y-123043000D01*
X167767000Y-123063000D01*
X168909915Y-123063000D01*
X169006200Y-122887745D01*
X174431861Y-122887745D01*
X174505995Y-123133864D01*
X175043223Y-123326965D01*
X175613454Y-123299778D01*
X176014005Y-123133864D01*
X176088139Y-122887745D01*
X175260000Y-122059605D01*
X174431861Y-122887745D01*
X169006200Y-122887745D01*
X169031904Y-122840961D01*
X168871041Y-122452577D01*
X168857398Y-122437516D01*
X168884600Y-122442927D01*
X168959643Y-122428000D01*
X168959648Y-122428000D01*
X169181917Y-122383788D01*
X169433971Y-122215371D01*
X169476483Y-122151747D01*
X169965007Y-121663223D01*
X173813035Y-121663223D01*
X173840222Y-122233454D01*
X174006136Y-122634005D01*
X174252255Y-122708139D01*
X175080395Y-121880000D01*
X175439605Y-121880000D01*
X176267745Y-122708139D01*
X176513864Y-122634005D01*
X176706965Y-122096777D01*
X176679778Y-121526546D01*
X176513864Y-121125995D01*
X176267745Y-121051861D01*
X175439605Y-121880000D01*
X175080395Y-121880000D01*
X174252255Y-121051861D01*
X174006136Y-121125995D01*
X173813035Y-121663223D01*
X169965007Y-121663223D01*
X171486231Y-120142000D01*
X173812560Y-120142000D01*
X173812560Y-120180000D01*
X173861843Y-120427765D01*
X174002191Y-120637809D01*
X174212235Y-120778157D01*
X174446187Y-120824693D01*
X174431861Y-120872255D01*
X175260000Y-121700395D01*
X176088139Y-120872255D01*
X176073813Y-120824693D01*
X176307765Y-120778157D01*
X176517809Y-120637809D01*
X176658157Y-120427765D01*
X176707440Y-120180000D01*
X176707440Y-118580000D01*
X176658157Y-118332235D01*
X176517809Y-118122191D01*
X176307765Y-117981843D01*
X176060000Y-117932560D01*
X174460000Y-117932560D01*
X174212235Y-117981843D01*
X174002191Y-118122191D01*
X173861843Y-118332235D01*
X173812560Y-118580000D01*
X173812560Y-118618000D01*
X171245642Y-118618000D01*
X171170599Y-118603073D01*
X171095556Y-118618000D01*
X171095552Y-118618000D01*
X170873283Y-118662212D01*
X170873282Y-118662213D01*
X170873281Y-118662213D01*
X170684851Y-118788118D01*
X170621229Y-118830629D01*
X170578718Y-118894251D01*
X169015001Y-120457969D01*
X169103113Y-120015000D01*
X168991740Y-119455091D01*
X168674577Y-118980423D01*
X168199909Y-118663260D01*
X167781333Y-118580000D01*
X167498667Y-118580000D01*
X167080091Y-118663260D01*
X166605423Y-118980423D01*
X166288260Y-119455091D01*
X166176887Y-120015000D01*
X166288260Y-120574909D01*
X166508152Y-120904000D01*
X161986631Y-120904000D01*
X161433932Y-120351302D01*
X161455000Y-120300439D01*
X161455000Y-119729561D01*
X161236534Y-119202138D01*
X160832862Y-118798466D01*
X160305439Y-118580000D01*
X159734561Y-118580000D01*
X159207138Y-118798466D01*
X158803466Y-119202138D01*
X158585000Y-119729561D01*
X158585000Y-120300439D01*
X158803466Y-120827862D01*
X159207138Y-121231534D01*
X159258000Y-121252602D01*
X159258001Y-121952398D01*
X159207138Y-121973466D01*
X158803466Y-122377138D01*
X158782398Y-122428000D01*
X157555047Y-122428000D01*
X157480000Y-122413072D01*
X157404953Y-122428000D01*
X157404952Y-122428000D01*
X157291162Y-122450634D01*
X156986333Y-122390000D01*
X156703667Y-122390000D01*
X156285091Y-122473260D01*
X155810423Y-122790423D01*
X155493260Y-123265091D01*
X155381887Y-123825000D01*
X127647700Y-123825000D01*
X127647700Y-116023493D01*
X128157233Y-116533026D01*
X128850050Y-116820000D01*
X129599950Y-116820000D01*
X130292767Y-116533026D01*
X130823026Y-116002767D01*
X131110000Y-115309950D01*
X131110000Y-115220750D01*
X147505000Y-115220750D01*
X147505000Y-116146310D01*
X147601673Y-116379699D01*
X147780302Y-116558327D01*
X148013691Y-116655000D01*
X148939250Y-116655000D01*
X149098000Y-116496250D01*
X149098000Y-115062000D01*
X149352000Y-115062000D01*
X149352000Y-116496250D01*
X149510750Y-116655000D01*
X150436309Y-116655000D01*
X150669698Y-116558327D01*
X150848327Y-116379699D01*
X150945000Y-116146310D01*
X150945000Y-115220750D01*
X150786250Y-115062000D01*
X149352000Y-115062000D01*
X149098000Y-115062000D01*
X147663750Y-115062000D01*
X147505000Y-115220750D01*
X131110000Y-115220750D01*
X131110000Y-114560050D01*
X130823026Y-113867233D01*
X130679483Y-113723690D01*
X147505000Y-113723690D01*
X147505000Y-114649250D01*
X147663750Y-114808000D01*
X149098000Y-114808000D01*
X149098000Y-113373750D01*
X149352000Y-113373750D01*
X149352000Y-114808000D01*
X150786250Y-114808000D01*
X150945000Y-114649250D01*
X150945000Y-113723690D01*
X150848327Y-113490301D01*
X150669698Y-113311673D01*
X150436309Y-113215000D01*
X149510750Y-113215000D01*
X149352000Y-113373750D01*
X149098000Y-113373750D01*
X148939250Y-113215000D01*
X148013691Y-113215000D01*
X147780302Y-113311673D01*
X147601673Y-113490301D01*
X147505000Y-113723690D01*
X130679483Y-113723690D01*
X130292767Y-113336974D01*
X129987000Y-113210321D01*
X129987000Y-102997000D01*
X154965400Y-102997000D01*
X154965400Y-111202357D01*
X154965400Y-111202357D01*
G37*
X154965400Y-111202357D02*
X154950473Y-111277400D01*
X154965400Y-111352443D01*
X154965400Y-111352447D01*
X155009612Y-111574716D01*
X155178029Y-111826771D01*
X155241653Y-111869283D01*
X155710000Y-112337630D01*
X155710000Y-112756783D01*
X155775854Y-113087855D01*
X156026712Y-113463289D01*
X156402146Y-113714146D01*
X156845000Y-113802235D01*
X156964010Y-113778562D01*
X156964011Y-114770000D01*
X156559561Y-114770000D01*
X156032138Y-114988466D01*
X155628466Y-115392138D01*
X155410000Y-115919561D01*
X155410000Y-116490439D01*
X155628466Y-117017862D01*
X156032138Y-117421534D01*
X156559561Y-117640000D01*
X157130439Y-117640000D01*
X157657862Y-117421534D01*
X158061534Y-117017862D01*
X158204486Y-116672745D01*
X164271861Y-116672745D01*
X164345995Y-116918864D01*
X164883223Y-117111965D01*
X165453454Y-117084778D01*
X165854005Y-116918864D01*
X165928139Y-116672745D01*
X165100000Y-115844605D01*
X164271861Y-116672745D01*
X158204486Y-116672745D01*
X158280000Y-116490439D01*
X158280000Y-115919561D01*
X158264010Y-115880959D01*
X158275381Y-115873361D01*
X158443798Y-115621307D01*
X158488010Y-115399038D01*
X158488010Y-115399037D01*
X158502938Y-115323990D01*
X158488010Y-115248943D01*
X158488010Y-113728039D01*
X158557855Y-113714146D01*
X158573871Y-113703445D01*
X158758691Y-113780000D01*
X159099250Y-113780000D01*
X159258000Y-113621250D01*
X159258000Y-112522000D01*
X159512000Y-112522000D01*
X159512000Y-113621250D01*
X159670750Y-113780000D01*
X160011309Y-113780000D01*
X160244698Y-113683327D01*
X160423327Y-113504699D01*
X160520000Y-113271310D01*
X160520000Y-112680750D01*
X160361250Y-112522000D01*
X159512000Y-112522000D01*
X159258000Y-112522000D01*
X159250000Y-112522000D01*
X159250000Y-112268000D01*
X159258000Y-112268000D01*
X159258000Y-111168750D01*
X159512000Y-111168750D01*
X159512000Y-112268000D01*
X160361250Y-112268000D01*
X160520000Y-112109250D01*
X160520000Y-111518690D01*
X160423327Y-111285301D01*
X160244698Y-111106673D01*
X160011309Y-111010000D01*
X159670750Y-111010000D01*
X159512000Y-111168750D01*
X159258000Y-111168750D01*
X159099250Y-111010000D01*
X158758691Y-111010000D01*
X158573870Y-111086555D01*
X158557854Y-111075854D01*
X158115000Y-110987765D01*
X157672145Y-111075854D01*
X157480000Y-111204241D01*
X157287854Y-111075854D01*
X156845000Y-110987765D01*
X156570080Y-111042450D01*
X156489400Y-110961770D01*
X156489400Y-102997000D01*
X181216300Y-102997000D01*
X181216300Y-104490234D01*
X180596310Y-103870244D01*
X180553797Y-103806619D01*
X180301743Y-103638202D01*
X180079474Y-103593990D01*
X180079469Y-103593990D01*
X180004426Y-103579063D01*
X179929383Y-103593990D01*
X170812682Y-103593990D01*
X170737639Y-103579063D01*
X170662596Y-103593990D01*
X170662592Y-103593990D01*
X170440323Y-103638202D01*
X170440322Y-103638203D01*
X170440321Y-103638203D01*
X170386281Y-103674312D01*
X170188269Y-103806619D01*
X170145756Y-103870244D01*
X169020637Y-104995363D01*
X168991740Y-104850091D01*
X168674577Y-104375423D01*
X168199909Y-104058260D01*
X167781333Y-103975000D01*
X167498667Y-103975000D01*
X167080091Y-104058260D01*
X166605423Y-104375423D01*
X166288260Y-104850091D01*
X166176887Y-105410000D01*
X166288260Y-105969909D01*
X166605423Y-106444577D01*
X166878000Y-106626707D01*
X166878001Y-107347398D01*
X166827138Y-107368466D01*
X166423466Y-107772138D01*
X166205000Y-108299561D01*
X166205000Y-108870439D01*
X166391877Y-109321600D01*
X165727665Y-109321600D01*
X162179000Y-105772936D01*
X162179000Y-104545247D01*
X162193928Y-104470200D01*
X162176895Y-104384571D01*
X162134788Y-104172883D01*
X161966371Y-103920829D01*
X161902749Y-103878318D01*
X161373883Y-103349453D01*
X161331371Y-103285829D01*
X161079317Y-103117412D01*
X160857048Y-103073200D01*
X160857043Y-103073200D01*
X160782000Y-103058273D01*
X160706957Y-103073200D01*
X159383847Y-103073200D01*
X159308800Y-103058272D01*
X159233753Y-103073200D01*
X159233752Y-103073200D01*
X159011483Y-103117412D01*
X158759429Y-103285829D01*
X158716918Y-103349451D01*
X158035653Y-104030717D01*
X157972029Y-104073229D01*
X157803612Y-104325284D01*
X157759400Y-104547553D01*
X157759400Y-104547557D01*
X157744473Y-104622600D01*
X157759400Y-104697644D01*
X157759401Y-106071552D01*
X157744473Y-106146600D01*
X157803613Y-106443917D01*
X157925634Y-106626534D01*
X157972030Y-106695971D01*
X158035651Y-106738481D01*
X158742317Y-107445148D01*
X158784829Y-107508771D01*
X158942749Y-107614290D01*
X158668260Y-108025091D01*
X158556887Y-108585000D01*
X158668260Y-109144909D01*
X158985423Y-109619577D01*
X159460091Y-109936740D01*
X159878667Y-110020000D01*
X160161333Y-110020000D01*
X160341527Y-109984157D01*
X163652560Y-113295191D01*
X163652560Y-114465000D01*
X163701843Y-114712765D01*
X163841995Y-114922516D01*
X163653035Y-115448223D01*
X163680222Y-116018454D01*
X163846136Y-116419005D01*
X164092255Y-116493139D01*
X164920395Y-115665000D01*
X164906252Y-115650858D01*
X165085858Y-115471253D01*
X165100000Y-115485395D01*
X165114143Y-115471253D01*
X165293748Y-115650858D01*
X165279605Y-115665000D01*
X166107745Y-116493139D01*
X166353864Y-116419005D01*
X166546965Y-115881777D01*
X166519778Y-115311546D01*
X166358395Y-114921933D01*
X166498157Y-114712765D01*
X166547440Y-114465000D01*
X166547440Y-113015071D01*
X167683118Y-114150749D01*
X167725629Y-114214371D01*
X167977683Y-114382788D01*
X168199952Y-114427000D01*
X168199957Y-114427000D01*
X168275000Y-114441927D01*
X168350043Y-114427000D01*
X170233293Y-114427000D01*
X170415423Y-114699577D01*
X170890091Y-115016740D01*
X171308667Y-115100000D01*
X171591333Y-115100000D01*
X172009909Y-115016740D01*
X172484577Y-114699577D01*
X172801740Y-114224909D01*
X172913113Y-113665000D01*
X172849157Y-113343473D01*
X177607010Y-108585620D01*
X177670843Y-108906526D01*
X177034851Y-109542519D01*
X176971230Y-109585029D01*
X176928719Y-109648651D01*
X176928718Y-109648652D01*
X176802813Y-109837083D01*
X176743673Y-110134400D01*
X176758601Y-110209448D01*
X176758600Y-111862756D01*
X176743673Y-111937800D01*
X176758600Y-112012843D01*
X176758600Y-112012847D01*
X176802812Y-112235116D01*
X176971229Y-112487171D01*
X177034854Y-112529684D01*
X177385916Y-112880746D01*
X177428429Y-112944371D01*
X177586514Y-113050000D01*
X177680481Y-113112787D01*
X177680482Y-113112787D01*
X177680483Y-113112788D01*
X177715349Y-113119723D01*
X177606887Y-113665000D01*
X177718260Y-114224909D01*
X178035423Y-114699577D01*
X178510091Y-115016740D01*
X178928667Y-115100000D01*
X179211333Y-115100000D01*
X179629909Y-115016740D01*
X180104577Y-114699577D01*
X180421740Y-114224909D01*
X180533113Y-113665000D01*
X180427551Y-113134304D01*
X180535717Y-113112788D01*
X180787771Y-112944371D01*
X180830283Y-112880747D01*
X181216300Y-112494730D01*
X181216300Y-126352300D01*
X127647700Y-126352300D01*
X127647700Y-123825000D01*
X155381887Y-123825000D01*
X155493260Y-124384909D01*
X155810423Y-124859577D01*
X156285091Y-125176740D01*
X156703667Y-125260000D01*
X156986333Y-125260000D01*
X157404909Y-125176740D01*
X157879577Y-124859577D01*
X158196740Y-124384909D01*
X158282851Y-123952000D01*
X158782398Y-123952000D01*
X158803466Y-124002862D01*
X159207138Y-124406534D01*
X159734561Y-124625000D01*
X160305439Y-124625000D01*
X160832862Y-124406534D01*
X161236534Y-124002862D01*
X161428655Y-123539039D01*
X166248096Y-123539039D01*
X166408959Y-123927423D01*
X166784866Y-124342389D01*
X167290959Y-124581914D01*
X167513000Y-124460629D01*
X167513000Y-123317000D01*
X167767000Y-123317000D01*
X167767000Y-124460629D01*
X167989041Y-124581914D01*
X168495134Y-124342389D01*
X168871041Y-123927423D01*
X169031904Y-123539039D01*
X168909915Y-123317000D01*
X167767000Y-123317000D01*
X167513000Y-123317000D01*
X166370085Y-123317000D01*
X166248096Y-123539039D01*
X161428655Y-123539039D01*
X161455000Y-123475439D01*
X161455000Y-122904561D01*
X161236534Y-122377138D01*
X160832862Y-121973466D01*
X160782000Y-121952398D01*
X160782000Y-121854631D01*
X161079118Y-122151749D01*
X161121629Y-122215371D01*
X161185251Y-122257882D01*
X161373681Y-122383787D01*
X161373682Y-122383787D01*
X161373683Y-122383788D01*
X161595952Y-122428000D01*
X161595956Y-122428000D01*
X161670999Y-122442927D01*
X161746042Y-122428000D01*
X166431223Y-122428000D01*
X166408959Y-122452577D01*
X166248096Y-122840961D01*
X166370085Y-123063000D01*
X167513000Y-123063000D01*
X167513000Y-123043000D01*
X167767000Y-123043000D01*
X167767000Y-123063000D01*
X168909915Y-123063000D01*
X169006200Y-122887745D01*
X174431861Y-122887745D01*
X174505995Y-123133864D01*
X175043223Y-123326965D01*
X175613454Y-123299778D01*
X176014005Y-123133864D01*
X176088139Y-122887745D01*
X175260000Y-122059605D01*
X174431861Y-122887745D01*
X169006200Y-122887745D01*
X169031904Y-122840961D01*
X168871041Y-122452577D01*
X168857398Y-122437516D01*
X168884600Y-122442927D01*
X168959643Y-122428000D01*
X168959648Y-122428000D01*
X169181917Y-122383788D01*
X169433971Y-122215371D01*
X169476483Y-122151747D01*
X169965007Y-121663223D01*
X173813035Y-121663223D01*
X173840222Y-122233454D01*
X174006136Y-122634005D01*
X174252255Y-122708139D01*
X175080395Y-121880000D01*
X175439605Y-121880000D01*
X176267745Y-122708139D01*
X176513864Y-122634005D01*
X176706965Y-122096777D01*
X176679778Y-121526546D01*
X176513864Y-121125995D01*
X176267745Y-121051861D01*
X175439605Y-121880000D01*
X175080395Y-121880000D01*
X174252255Y-121051861D01*
X174006136Y-121125995D01*
X173813035Y-121663223D01*
X169965007Y-121663223D01*
X171486231Y-120142000D01*
X173812560Y-120142000D01*
X173812560Y-120180000D01*
X173861843Y-120427765D01*
X174002191Y-120637809D01*
X174212235Y-120778157D01*
X174446187Y-120824693D01*
X174431861Y-120872255D01*
X175260000Y-121700395D01*
X176088139Y-120872255D01*
X176073813Y-120824693D01*
X176307765Y-120778157D01*
X176517809Y-120637809D01*
X176658157Y-120427765D01*
X176707440Y-120180000D01*
X176707440Y-118580000D01*
X176658157Y-118332235D01*
X176517809Y-118122191D01*
X176307765Y-117981843D01*
X176060000Y-117932560D01*
X174460000Y-117932560D01*
X174212235Y-117981843D01*
X174002191Y-118122191D01*
X173861843Y-118332235D01*
X173812560Y-118580000D01*
X173812560Y-118618000D01*
X171245642Y-118618000D01*
X171170599Y-118603073D01*
X171095556Y-118618000D01*
X171095552Y-118618000D01*
X170873283Y-118662212D01*
X170873282Y-118662213D01*
X170873281Y-118662213D01*
X170684851Y-118788118D01*
X170621229Y-118830629D01*
X170578718Y-118894251D01*
X169015001Y-120457969D01*
X169103113Y-120015000D01*
X168991740Y-119455091D01*
X168674577Y-118980423D01*
X168199909Y-118663260D01*
X167781333Y-118580000D01*
X167498667Y-118580000D01*
X167080091Y-118663260D01*
X166605423Y-118980423D01*
X166288260Y-119455091D01*
X166176887Y-120015000D01*
X166288260Y-120574909D01*
X166508152Y-120904000D01*
X161986631Y-120904000D01*
X161433932Y-120351302D01*
X161455000Y-120300439D01*
X161455000Y-119729561D01*
X161236534Y-119202138D01*
X160832862Y-118798466D01*
X160305439Y-118580000D01*
X159734561Y-118580000D01*
X159207138Y-118798466D01*
X158803466Y-119202138D01*
X158585000Y-119729561D01*
X158585000Y-120300439D01*
X158803466Y-120827862D01*
X159207138Y-121231534D01*
X159258000Y-121252602D01*
X159258001Y-121952398D01*
X159207138Y-121973466D01*
X158803466Y-122377138D01*
X158782398Y-122428000D01*
X157555047Y-122428000D01*
X157480000Y-122413072D01*
X157404953Y-122428000D01*
X157404952Y-122428000D01*
X157291162Y-122450634D01*
X156986333Y-122390000D01*
X156703667Y-122390000D01*
X156285091Y-122473260D01*
X155810423Y-122790423D01*
X155493260Y-123265091D01*
X155381887Y-123825000D01*
X127647700Y-123825000D01*
X127647700Y-116023493D01*
X128157233Y-116533026D01*
X128850050Y-116820000D01*
X129599950Y-116820000D01*
X130292767Y-116533026D01*
X130823026Y-116002767D01*
X131110000Y-115309950D01*
X131110000Y-115220750D01*
X147505000Y-115220750D01*
X147505000Y-116146310D01*
X147601673Y-116379699D01*
X147780302Y-116558327D01*
X148013691Y-116655000D01*
X148939250Y-116655000D01*
X149098000Y-116496250D01*
X149098000Y-115062000D01*
X149352000Y-115062000D01*
X149352000Y-116496250D01*
X149510750Y-116655000D01*
X150436309Y-116655000D01*
X150669698Y-116558327D01*
X150848327Y-116379699D01*
X150945000Y-116146310D01*
X150945000Y-115220750D01*
X150786250Y-115062000D01*
X149352000Y-115062000D01*
X149098000Y-115062000D01*
X147663750Y-115062000D01*
X147505000Y-115220750D01*
X131110000Y-115220750D01*
X131110000Y-114560050D01*
X130823026Y-113867233D01*
X130679483Y-113723690D01*
X147505000Y-113723690D01*
X147505000Y-114649250D01*
X147663750Y-114808000D01*
X149098000Y-114808000D01*
X149098000Y-113373750D01*
X149352000Y-113373750D01*
X149352000Y-114808000D01*
X150786250Y-114808000D01*
X150945000Y-114649250D01*
X150945000Y-113723690D01*
X150848327Y-113490301D01*
X150669698Y-113311673D01*
X150436309Y-113215000D01*
X149510750Y-113215000D01*
X149352000Y-113373750D01*
X149098000Y-113373750D01*
X148939250Y-113215000D01*
X148013691Y-113215000D01*
X147780302Y-113311673D01*
X147601673Y-113490301D01*
X147505000Y-113723690D01*
X130679483Y-113723690D01*
X130292767Y-113336974D01*
X129987000Y-113210321D01*
X129987000Y-102997000D01*
X154965400Y-102997000D01*
X154965400Y-111202357D01*
G36*
X172743110Y-106188860D02*
X172726250Y-106172000D01*
X171577000Y-106172000D01*
X171577000Y-106192000D01*
X171323000Y-106192000D01*
X171323000Y-106172000D01*
X171303000Y-106172000D01*
X171303000Y-105918000D01*
X171323000Y-105918000D01*
X171323000Y-105898000D01*
X171577000Y-105898000D01*
X171577000Y-105918000D01*
X172726250Y-105918000D01*
X172885000Y-105759250D01*
X172885000Y-105118690D01*
X172884710Y-105117990D01*
X173813979Y-105117990D01*
X172743110Y-106188860D01*
X172743110Y-106188860D01*
G37*
X172743110Y-106188860D02*
X172726250Y-106172000D01*
X171577000Y-106172000D01*
X171577000Y-106192000D01*
X171323000Y-106192000D01*
X171323000Y-106172000D01*
X171303000Y-106172000D01*
X171303000Y-105918000D01*
X171323000Y-105918000D01*
X171323000Y-105898000D01*
X171577000Y-105898000D01*
X171577000Y-105918000D01*
X172726250Y-105918000D01*
X172885000Y-105759250D01*
X172885000Y-105118690D01*
X172884710Y-105117990D01*
X173813979Y-105117990D01*
X172743110Y-106188860D01*
G04 #@! TD*
M02*
