M48
;DRILL file {KiCad (5.0.0)} date 09/20/18 09:30:49
;FORMAT={-:-/ absolute / inch / decimal}
FMAT,2
INCH,TZ
T1C0.0217
T2C0.0315
T3C0.0354
T4C0.0461
T5C0.0591
%
G90
G05
M72
T1
X6.175Y-4.425
X6.225Y-4.425
X6.275Y-4.425
T2
X6.5Y-4.475
X6.5Y-4.5537
X6.9Y-4.7
X6.9Y-4.7984
X6.3Y-4.15
X6.6Y-4.15
X6.3Y-4.275
X6.6Y-4.275
X6.3Y-4.725
X6.6Y-4.725
X6.3Y-4.85
X6.6Y-4.85
X6.175Y-4.575
X6.175Y-4.875
X6.725Y-1.8
X7.025Y-1.8
X5.15Y-1.775
X5.45Y-1.775
X6.75Y-4.175
X6.75Y-4.275
X6.75Y-4.375
X6.75Y-4.475
X7.05Y-4.175
X7.05Y-4.275
X7.05Y-4.375
X7.05Y-4.475
T3
X6.515Y-2.565
X6.615Y-2.565
X5.65Y-2.565
X5.75Y-2.565
X5.1Y-3.7016
X5.1Y-3.8
X5.1Y-3.8984
T4
X5.875Y-4.525
T5
X5.0876Y-4.525
T0
M30
